<svg xmlns="http://www.w3.org/2000/svg" xmlns:xlink="http://www.w3.org/1999/xlink" width="500" zoomAndPan="magnify" viewBox="0 0 375 374.999991" height="500" preserveAspectRatio="xMidYMid meet" version="1.0"><defs><clipPath id="d02e6db03e"><path d="M 41 38 L 348 38 L 348 337.773438 L 41 337.773438 Z M 41 38 " clip-rule="nonzero"/></clipPath><clipPath id="b99ca816cb"><path d="M 146 38 L 243 38 L 243 130 L 146 130 Z M 146 38 " clip-rule="nonzero"/></clipPath><clipPath id="8558f134a0"><path d="M 220.582031 61.78125 C 268.226562 72.359375 326.773438 107.117188 341.121094 169.960938 C 352.507812 219.84375 350.855469 259.632812 325.449219 282.269531 C 289.902344 313.945312 241.488281 337.78125 194.378906 337.289062 C 146.378906 336.785156 95.539062 312.769531 60.292969 279.382812 C 36.425781 256.777344 37.121094 213.78125 50.046875 169.960938 C 68.40625 107.710938 127.789062 71.902344 168.621094 61.484375 C 162.433594 54.90625 154.679688 47.308594 149.90625 44.984375 C 149.683594 44.878906 149.558594 44.632812 149.601562 44.386719 C 149.644531 44.144531 149.847656 43.957031 150.09375 43.933594 C 162.378906 43.207031 184.367188 49.941406 191.890625 56.503906 C 195.464844 48.734375 200.316406 41.296875 204.601562 38.09375 C 204.761719 38 204.960938 38.015625 205.105469 38.136719 C 205.246094 38.257812 205.296875 38.453125 205.230469 38.625 C 203.949219 42.023438 204.421875 49.554688 205.375 57.015625 C 211.035156 49.96875 218.816406 42.714844 225.097656 38.773438 C 225.332031 38.640625 225.625 38.683594 225.816406 38.875 C 226.003906 39.066406 226.035156 39.363281 225.898438 39.59375 C 223.496094 44.144531 221.730469 53.667969 220.582031 61.78125 Z M 220.582031 61.78125 " clip-rule="evenodd"/></clipPath><clipPath id="89be91092e"><path d="M 0 199 L 374.867188 199 L 374.867188 291 L 0 291 Z M 0 199 " clip-rule="nonzero"/></clipPath><clipPath id="c6e3f5017d"><path d="M 2.675781 360.652344 L 26.113281 360.652344 L 26.113281 369.957031 L 2.675781 369.957031 Z M 2.675781 360.652344 " clip-rule="nonzero"/></clipPath><clipPath id="199cd09c15"><path d="M 4.050781 365.476562 C 15.824219 361.273438 21.375 360.226562 23.625 360.824219 C 24.824219 361.199219 25.800781 361.875 26.023438 362.625 C 26.25 363.375 25.574219 364.949219 24.976562 365.398438 C 24.375 365.773438 23.25 365.773438 22.648438 365.550781 C 22.050781 365.25 21.375 364.351562 21.226562 363.675781 C 21.148438 363.074219 21.523438 362.023438 21.976562 361.5 C 22.351562 361.125 22.875 360.898438 23.398438 360.898438 C 23.851562 360.824219 24.523438 360.898438 24.898438 361.199219 C 25.425781 361.574219 26.101562 362.476562 26.101562 363.148438 C 26.101562 363.898438 25.425781 365.023438 24.449219 365.625 C 22.648438 366.675781 17.851562 365.699219 14.699219 366.375 C 11.398438 367.050781 7.050781 370.125 5.023438 369.898438 C 3.976562 369.75 3.148438 368.925781 2.851562 368.324219 C 2.625 367.875 2.699219 367.199219 2.925781 366.675781 C 3.074219 366.226562 4.050781 365.476562 4.050781 365.476562 " clip-rule="nonzero"/></clipPath></defs><path fill="#fbae30" d="M 248.570312 85.875 C 264.21875 56.875 299.59375 30.1875 343.742188 21.476562 C 352.238281 19.777344 360.542969 25.164062 362.46875 33.628906 C 371.140625 71.953125 355.246094 122.105469 333.425781 160.835938 Z M 139.203125 85.875 L 54.34375 160.835938 C 32.527344 122.105469 16.628906 71.953125 25.304688 33.628906 C 27.230469 25.164062 35.53125 19.777344 44.03125 21.476562 C 88.175781 30.1875 123.554688 56.875 139.203125 85.875 Z M 139.203125 85.875 " fill-opacity="1" fill-rule="evenodd"/><path fill="#f5802f" d="M 262.03125 85.136719 C 273.675781 63.558594 299.0625 46.222656 331.328125 39.441406 C 335.582031 38.554688 340.015625 39.441406 343.605469 41.898438 C 347.191406 44.351562 349.628906 48.164062 350.355469 52.457031 C 355.070312 80.636719 343.570312 114.609375 327.5625 143.023438 Z M 125.738281 85.136719 L 60.207031 143.023438 C 44.199219 114.609375 32.699219 80.636719 37.417969 52.457031 C 38.140625 48.164062 40.578125 44.351562 44.167969 41.898438 C 47.757812 39.441406 52.1875 38.554688 56.445312 39.441406 C 88.707031 46.222656 114.09375 63.558594 125.738281 85.136719 Z M 125.738281 85.136719 " fill-opacity="1" fill-rule="evenodd"/><g clip-path="url(#d02e6db03e)"><path fill="#fbae30" d="M 220.582031 61.78125 C 268.226562 72.359375 326.773438 107.117188 341.121094 169.960938 C 352.507812 219.84375 350.855469 259.632812 325.449219 282.269531 C 289.902344 313.945312 241.488281 337.78125 194.378906 337.289062 C 146.378906 336.785156 95.539062 312.769531 60.292969 279.382812 C 36.425781 256.777344 37.121094 213.78125 50.046875 169.960938 C 68.40625 107.710938 127.789062 71.902344 168.621094 61.484375 C 162.433594 54.90625 154.679688 47.308594 149.90625 44.984375 C 149.683594 44.878906 149.558594 44.632812 149.601562 44.386719 C 149.644531 44.144531 149.847656 43.957031 150.09375 43.933594 C 162.378906 43.207031 184.367188 49.941406 191.890625 56.503906 C 195.464844 48.734375 200.316406 41.296875 204.601562 38.09375 C 204.761719 38 204.960938 38.015625 205.105469 38.136719 C 205.246094 38.257812 205.296875 38.453125 205.230469 38.625 C 203.949219 42.023438 204.421875 49.554688 205.375 57.015625 C 211.035156 49.96875 218.816406 42.714844 225.097656 38.773438 C 225.332031 38.640625 225.625 38.683594 225.816406 38.875 C 226.003906 39.066406 226.035156 39.363281 225.898438 39.59375 C 223.496094 44.144531 221.730469 53.667969 220.582031 61.78125 Z M 220.582031 61.78125 " fill-opacity="1" fill-rule="evenodd"/></g><g clip-path="url(#b99ca816cb)"><g clip-path="url(#8558f134a0)"><path fill="#f5802f" d="M 146.71875 39.25 C 146.71875 39.25 169.945312 103.132812 178.324219 126.175781 C 178.9375 127.867188 180.402344 129.101562 182.171875 129.417969 C 183.9375 129.734375 185.742188 129.085938 186.902344 127.714844 C 187.515625 126.992188 188.125 126.273438 188.695312 125.601562 C 190.476562 123.5 193.613281 123.21875 195.742188 124.972656 C 196.800781 125.84375 197.96875 126.808594 199.09375 127.734375 C 200.332031 128.757812 201.980469 129.128906 203.535156 128.734375 C 205.089844 128.339844 206.363281 127.226562 206.96875 125.742188 C 215.609375 104.445312 242.992188 36.988281 242.992188 36.988281 C 242.992188 36.988281 201.449219 -20.042969 146.71875 39.25 Z M 146.71875 39.25 " fill-opacity="1" fill-rule="evenodd"/></g></g><path fill="#ffffff" d="M 251.878906 138.46875 C 273.132812 142.070312 288.65625 159.039062 285.0625 180.324219 C 281.46875 201.609375 260.105469 219.207031 238.851562 215.605469 C 217.601562 212.003906 203.261719 191.800781 206.859375 170.515625 C 210.453125 149.226562 230.625 134.867188 251.878906 138.46875 Z M 251.878906 138.46875 " fill-opacity="1" fill-rule="evenodd"/><path fill="#ffffff" d="M 133.601562 138.46875 C 112.347656 142.070312 96.820312 159.039062 100.414062 180.324219 C 104.011719 201.609375 125.371094 219.207031 146.625 215.605469 C 167.878906 212.003906 182.214844 191.800781 178.621094 170.515625 C 175.027344 149.226562 154.855469 134.867188 133.601562 138.46875 Z M 133.601562 138.46875 " fill-opacity="1" fill-rule="evenodd"/><path fill="#463938" d="M 269.777344 190.679688 C 272.199219 185.785156 273.15625 180.113281 272.175781 174.324219 C 269.710938 159.730469 255.882812 149.882812 241.308594 152.351562 C 226.738281 154.820312 216.09375 166.457031 218.558594 181.050781 C 221.023438 195.644531 235.667969 207.707031 250.242188 205.238281 C 252.105469 204.921875 253.890625 204.421875 255.585938 203.753906 C 254.910156 202.617188 254.429688 201.367188 254.210938 200.0625 C 253.285156 194.578125 257.28125 190.207031 262.757812 189.28125 C 265.289062 188.851562 267.757812 189.410156 269.777344 190.679688 Z M 269.777344 190.679688 " fill-opacity="1" fill-rule="evenodd"/><path fill="#463938" d="M 164.5 190.679688 C 166.917969 185.785156 167.875 180.113281 166.898438 174.324219 C 164.433594 159.730469 150.601562 149.882812 136.03125 152.351562 C 121.460938 154.820312 110.816406 166.457031 113.28125 181.050781 C 115.746094 195.644531 130.390625 207.707031 144.960938 205.238281 C 146.828125 204.921875 148.613281 204.421875 150.308594 203.753906 C 149.628906 202.617188 149.152344 201.367188 148.929688 200.0625 C 148.003906 194.578125 152.003906 190.207031 157.480469 189.28125 C 160.007812 188.851562 162.480469 189.410156 164.5 190.679688 Z M 164.5 190.679688 " fill-opacity="1" fill-rule="evenodd"/><path fill="#332725" d="M 247.632812 166.730469 C 254.25 167.796875 258.757812 174.046875 257.691406 180.675781 C 256.625 187.304688 250.386719 191.820312 243.769531 190.75 C 237.152344 189.683594 232.640625 183.4375 233.707031 176.804688 C 234.773438 170.175781 241.011719 165.664062 247.632812 166.730469 Z M 247.632812 166.730469 " fill-opacity="1" fill-rule="evenodd"/><path fill="#332725" d="M 137.847656 166.730469 C 131.230469 167.796875 126.722656 174.046875 127.785156 180.675781 C 128.851562 187.304688 135.089844 191.820312 141.710938 190.75 C 148.328125 189.683594 152.835938 183.4375 151.769531 176.804688 C 150.707031 170.175781 144.464844 165.664062 137.847656 166.730469 Z M 137.847656 166.730469 " fill-opacity="1" fill-rule="evenodd"/><path fill="#ffffff" d="M 258.023438 159.96875 C 262.554688 160.699219 265.640625 164.976562 264.914062 169.515625 C 264.183594 174.054688 259.914062 177.144531 255.382812 176.414062 C 250.851562 175.683594 247.761719 171.40625 248.492188 166.867188 C 249.222656 162.328125 253.492188 159.238281 258.023438 159.96875 Z M 258.023438 159.96875 " fill-opacity="1" fill-rule="evenodd"/><path fill="#ffffff" d="M 147.09375 158.351562 C 142.5625 159.082031 139.476562 163.359375 140.207031 167.898438 C 140.9375 172.4375 145.207031 175.527344 149.738281 174.796875 C 154.269531 174.066406 157.355469 169.789062 156.628906 165.25 C 155.898438 160.710938 151.625 157.621094 147.09375 158.351562 Z M 147.09375 158.351562 " fill-opacity="1" fill-rule="evenodd"/><path fill="#ffffff" d="M 130.539062 178.867188 C 125.160156 179.734375 121.496094 184.8125 122.363281 190.203125 C 123.230469 195.589844 128.300781 199.261719 133.679688 198.390625 C 139.058594 197.523438 142.722656 192.445312 141.855469 187.058594 C 140.992188 181.671875 135.921875 178 130.539062 178.867188 Z M 130.539062 178.867188 " fill-opacity="1" fill-rule="evenodd"/><path fill="#ffffff" d="M 235.625 174.972656 C 230.3125 175.828125 226.695312 180.84375 227.550781 186.167969 C 228.40625 191.488281 233.414062 195.113281 238.726562 194.253906 C 244.039062 193.398438 247.65625 188.382812 246.800781 183.0625 C 245.949219 177.742188 240.941406 174.117188 235.625 174.972656 Z M 235.625 174.972656 " fill-opacity="1" fill-rule="evenodd"/><path fill="#ffdec8" d="M 191.816406 216.074219 C 225.972656 216.074219 262.144531 234.894531 262.144531 257.65625 C 262.144531 280.417969 230.960938 303.988281 196.800781 303.988281 C 162.644531 303.988281 126.859375 288.226562 126.859375 265.464844 C 126.859375 242.703125 157.65625 216.074219 191.816406 216.074219 Z M 191.816406 216.074219 " fill-opacity="1" fill-rule="evenodd"/><path fill="#ff8063" d="M 193.367188 250.59375 C 196.023438 250.621094 198.789062 250.894531 201.625 251.460938 C 208.160156 252.769531 215.089844 255.644531 222.101562 260.792969 C 223.019531 261.429688 223.25 262.695312 222.613281 263.613281 C 221.976562 264.535156 220.710938 264.761719 219.792969 264.125 C 213.160156 259.769531 206.707031 257.539062 200.703125 256.566406 C 197.675781 256.074219 194.761719 255.929688 191.984375 255.992188 C 186.578125 256.113281 181.6875 257.109375 177.5625 258.4375 C 169.453125 261.046875 164.300781 264.769531 164.300781 264.769531 C 163.421875 265.460938 162.148438 265.308594 161.457031 264.429688 C 160.765625 263.550781 160.917969 262.273438 161.792969 261.582031 C 161.792969 261.582031 167.160156 257.027344 175.953125 253.773438 C 180.148438 252.21875 185.125 250.949219 190.632812 250.65625 L 189.59375 233.785156 C 189.59375 233.648438 189.605469 233.515625 189.625 233.386719 C 180.378906 230.839844 162.886719 216.726562 168.347656 208.632812 C 171.613281 203.792969 211.71875 198.792969 216.523438 212.058594 C 218.402344 217.246094 203.046875 231.144531 194.378906 233.457031 C 194.394531 233.566406 194.402344 233.675781 194.402344 233.785156 Z M 193.367188 250.59375 " fill-opacity="1" fill-rule="evenodd"/><g clip-path="url(#89be91092e)"><path fill="#9a570e" d="M 284.777344 229.222656 C 283.910156 229.625 282.878906 229.25 282.476562 228.378906 C 282.074219 227.511719 282.449219 226.476562 283.316406 226.074219 C 297.089844 219.824219 311.152344 214.390625 325.570312 209.917969 C 339.871094 205.476562 354.515625 201.984375 369.554688 199.574219 C 370.023438 199.492188 370.472656 199.808594 370.550781 200.28125 C 370.632812 200.75 370.316406 201.199219 369.84375 201.277344 C 354.957031 203.960938 340.480469 207.710938 326.363281 212.394531 C 312.15625 217.105469 298.3125 222.761719 284.777344 229.222656 Z M 91.429688 229.800781 C 92.296875 230.203125 92.671875 231.238281 92.269531 232.105469 C 91.867188 232.972656 90.835938 233.351562 89.96875 232.949219 C 76.433594 226.488281 62.59375 220.832031 48.382812 216.121094 C 34.265625 211.4375 19.789062 207.6875 4.902344 205.003906 C 4.429688 204.921875 4.113281 204.476562 4.195312 204.003906 C 4.273438 203.535156 4.722656 203.21875 5.191406 203.296875 C 20.230469 205.707031 34.875 209.203125 49.175781 213.640625 C 63.59375 218.117188 77.65625 223.550781 91.429688 229.800781 Z M 279.921875 268.550781 C 278.964844 268.523438 278.210938 267.722656 278.242188 266.765625 C 278.269531 265.808594 279.066406 265.054688 280.023438 265.082031 C 295.1875 265.667969 310.234375 267.363281 325.128906 270.636719 C 339.632812 273.824219 353.988281 278.507812 368.148438 285.121094 C 368.582031 285.316406 368.773438 285.832031 368.574219 286.265625 C 368.378906 286.699219 367.867188 286.894531 367.433594 286.695312 C 353.296875 280.421875 339.007812 276.0625 324.597656 273.183594 C 309.820312 270.230469 294.917969 268.84375 279.921875 268.550781 Z M 94.722656 268.808594 C 95.679688 268.78125 96.480469 269.535156 96.507812 270.492188 C 96.535156 271.449219 95.78125 272.25 94.824219 272.277344 C 79.832031 272.570312 64.929688 273.957031 50.148438 276.90625 C 35.738281 279.785156 21.449219 284.144531 7.316406 290.421875 C 6.882812 290.617188 6.367188 290.425781 6.171875 289.992188 C 5.972656 289.554688 6.164062 289.042969 6.601562 288.84375 C 20.761719 282.230469 35.113281 277.550781 49.617188 274.363281 C 64.511719 271.089844 79.5625 269.394531 94.722656 268.808594 Z M 284.296875 248.609375 C 283.351562 248.75 282.472656 248.089844 282.332031 247.144531 C 282.195312 246.195312 282.851562 245.3125 283.796875 245.175781 C 298.976562 243.101562 314.054688 241.863281 328.984375 241.855469 C 344.183594 241.84375 359.226562 243.101562 374.070312 246.042969 C 374.539062 246.128906 374.847656 246.582031 374.757812 247.050781 C 374.671875 247.519531 374.21875 247.832031 373.75 247.742188 C 358.992188 245.113281 344.066406 244.15625 329.011719 244.457031 C 314.214844 244.75 299.300781 246.265625 284.296875 248.609375 Z M 90.949219 248.898438 C 91.894531 249.039062 92.550781 249.921875 92.414062 250.867188 C 92.277344 251.816406 91.394531 252.472656 90.449219 252.335938 C 75.445312 249.992188 60.53125 248.476562 45.734375 248.179688 C 30.679688 247.882812 15.753906 248.839844 0.996094 251.46875 C 0.527344 251.554688 0.078125 251.246094 -0.0117188 250.777344 C -0.0976562 250.308594 0.210938 249.855469 0.679688 249.765625 C 15.519531 246.828125 30.5625 245.570312 45.761719 245.582031 C 60.695312 245.589844 75.769531 246.828125 90.949219 248.898438 Z M 90.949219 248.898438 " fill-opacity="1" fill-rule="evenodd"/></g><path fill="#fbae30" d="M 258.296875 130.433594 C 235.910156 124.558594 215.796875 127.183594 213.417969 136.292969 C 211.035156 145.402344 227.277344 157.566406 249.664062 163.441406 C 272.050781 169.3125 292.164062 166.6875 294.546875 157.582031 C 296.925781 148.472656 280.683594 136.308594 258.296875 130.433594 Z M 258.296875 130.433594 " fill-opacity="1" fill-rule="evenodd"/><path fill="#fbae30" d="M 127.792969 130.433594 C 150.179688 124.558594 170.289062 127.183594 172.671875 136.292969 C 175.054688 145.402344 158.8125 157.566406 136.425781 163.441406 C 114.035156 169.3125 93.925781 166.6875 91.542969 157.582031 C 89.160156 148.472656 105.402344 136.308594 127.792969 130.433594 Z M 127.792969 130.433594 " fill-opacity="1" fill-rule="evenodd"/><path fill="#6baab9" d="M 96.136719 213.734375 C 97.308594 211.480469 99.667969 210.109375 102.199219 210.207031 C 104.730469 210.304688 106.980469 211.855469 107.972656 214.191406 C 115.761719 232.523438 128.636719 266.351562 123.949219 279.734375 C 119.035156 293.777344 103.660156 301.179688 89.640625 296.253906 C 75.621094 291.332031 68.234375 275.933594 73.148438 261.894531 C 77.484375 249.507812 88.878906 227.371094 96.136719 213.734375 Z M 96.136719 213.734375 " fill-opacity="1" fill-rule="evenodd"/><g clip-path="url(#c6e3f5017d)"><g clip-path="url(#199cd09c15)"><path fill="#ffffff" d="M -0.148438 357.824219 L 29.117188 357.824219 L 29.117188 372.898438 L -0.148438 372.898438 Z M -0.148438 357.824219 " fill-opacity="1" fill-rule="nonzero"/></g></g></svg>